<svg width="281" height="55" viewBox="0 0 281 55" fill="none" xmlns="http://www.w3.org/2000/svg">
<path d="M1.924 9.632V5.316H24.908C27.3693 5.38533 29.5707 5.784 31.512 6.512C33.4533 7.24 35.1173 8.332 36.504 9.788C37.9253 11.244 38.9827 12.9947 39.676 15.04C40.3693 17.0853 40.716 19.408 40.716 22.008C40.716 24.7467 40.3173 27.208 39.52 29.392C38.7573 31.576 37.6133 33.4827 36.088 35.112C34.528 36.776 32.708 38.0067 30.628 38.804C28.5827 39.6013 26.2773 40 23.712 40H1.924V35.736H4.628C4.69733 35.7707 4.76667 35.788 4.836 35.788C4.90533 35.788 4.95733 35.788 4.992 35.788C5.408 35.788 5.772 35.7533 6.084 35.684C6.396 35.58 6.63867 35.4413 6.812 35.268C7.02 35.0947 7.176 34.852 7.28 34.54C7.384 34.228 7.436 33.8467 7.436 33.396V12.076C7.436 11.6947 7.384 11.348 7.28 11.036C7.176 10.724 7.02 10.4813 6.812 10.308C6.604 10.1347 6.30933 9.996 5.928 9.892C5.58133 9.788 5.148 9.736 4.628 9.736L1.924 9.632ZM16.016 35.528H20.436C20.5053 35.5627 20.5573 35.58 20.592 35.58C20.6613 35.58 20.7307 35.58 20.8 35.58C20.8347 35.58 20.8867 35.58 20.956 35.58C21.0253 35.58 21.0773 35.58 21.112 35.58C22.0133 35.58 22.8107 35.528 23.504 35.424C24.232 35.32 24.856 35.1813 25.376 35.008C25.9653 34.8 26.5027 34.5227 26.988 34.176C27.508 33.7947 27.976 33.344 28.392 32.824C28.912 32.2 29.3453 31.5067 29.692 30.744C30.0733 29.9813 30.3853 29.1667 30.628 28.3C30.8707 27.4333 31.044 26.4627 31.148 25.388C31.2867 24.3133 31.356 23.1347 31.356 21.852C31.356 20.0147 31.1653 18.3853 30.784 16.964C30.4027 15.508 29.8133 14.2427 29.016 13.168C28.2533 12.0587 27.1787 11.244 25.792 10.724C24.44 10.1693 22.7933 9.892 20.852 9.892L16.016 9.788V35.528ZM56.1726 15.196V33.448C56.1726 33.9333 56.2073 34.332 56.2766 34.644C56.3459 34.956 56.4499 35.1987 56.5886 35.372C56.7273 35.5453 56.9179 35.684 57.1606 35.788C57.4033 35.8573 57.6979 35.892 58.0446 35.892L60.2286 35.788V40H44.3686V35.788H46.6046C46.6739 35.8227 46.7259 35.84 46.7606 35.84C46.7953 35.84 46.8299 35.84 46.8646 35.84C47.1419 35.84 47.3673 35.8053 47.5406 35.736C47.7486 35.632 47.9219 35.5107 48.0606 35.372C48.1993 35.1987 48.3033 34.9733 48.3726 34.696C48.4419 34.384 48.4766 34.0027 48.4766 33.552V21.748C48.4766 21.3667 48.4419 21.0373 48.3726 20.76C48.3033 20.448 48.1993 20.2227 48.0606 20.084C47.9219 19.9107 47.7313 19.7893 47.4886 19.72C47.2459 19.616 46.9513 19.564 46.6046 19.564L44.3686 19.46V15.196H56.1726ZM52.0126 4.12C52.6019 4.18933 53.1566 4.328 53.6766 4.536C54.1966 4.744 54.6646 5.056 55.0806 5.472C55.4966 5.888 55.8086 6.356 56.0166 6.876C56.2593 7.396 56.3806 7.95066 56.3806 8.54C56.3806 9.164 56.2593 9.736 56.0166 10.256C55.8086 10.776 55.4966 11.244 55.0806 11.66C54.6646 12.076 54.1966 12.388 53.6766 12.596C53.1566 12.804 52.6019 12.908 52.0126 12.908C51.4233 12.908 50.8686 12.804 50.3486 12.596C49.8286 12.388 49.3606 12.0587 48.9446 11.608C48.4939 11.192 48.1646 10.724 47.9566 10.204C47.7486 9.684 47.6446 9.12933 47.6446 8.54C47.6446 7.95066 47.7486 7.396 47.9566 6.876C48.1646 6.356 48.4939 5.888 48.9446 5.472C49.3606 5.056 49.8286 4.744 50.3486 4.536C50.8686 4.328 51.4233 4.224 52.0126 4.224V4.12ZM88.0693 30.848H91.5533V33.812C91.5533 35.0947 91.4146 36.1867 91.1373 37.088C90.86 37.9547 90.4613 38.6827 89.9413 39.272C89.4213 39.792 88.7453 40.1907 87.9133 40.468C87.0813 40.7453 86.1106 40.884 85.0013 40.884C84.1346 40.884 83.3373 40.7973 82.6093 40.624C81.916 40.4853 81.3093 40.2773 80.7893 40C80.2693 39.7573 79.8013 39.4107 79.3853 38.96C79.004 38.4747 78.6746 37.9027 78.3973 37.244C77.8773 37.868 77.3226 38.4227 76.7333 38.908C76.144 39.3587 75.5026 39.7227 74.8093 40C74.1506 40.2773 73.44 40.4853 72.6773 40.624C71.9146 40.7973 71.1346 40.884 70.3373 40.884C69.1586 40.884 68.1186 40.728 67.2173 40.416C66.316 40.1387 65.5186 39.7053 64.8253 39.116C64.1666 38.5267 63.664 37.816 63.3173 36.984C62.9706 36.152 62.7973 35.1987 62.7973 34.124C62.7973 32.8413 62.988 31.7667 63.3693 30.9C63.7853 29.9987 64.392 29.3227 65.1893 28.872C65.9866 28.3867 66.836 27.988 67.7373 27.676C68.6386 27.3293 69.5746 27.0347 70.5453 26.792C70.684 26.7573 70.8226 26.7227 70.9613 26.688C71.1 26.6533 71.2386 26.6187 71.3773 26.584C71.4466 26.584 71.516 26.584 71.5853 26.584C71.6546 26.5493 71.7413 26.5147 71.8453 26.48C71.9146 26.48 71.984 26.48 72.0533 26.48C72.1226 26.4453 72.192 26.428 72.2613 26.428C73.0586 26.2547 73.804 26.064 74.4973 25.856C75.1906 25.648 75.832 25.4227 76.4213 25.18C77.0106 24.9027 77.4613 24.5387 77.7733 24.088C78.0853 23.6027 78.2413 23.0307 78.2413 22.372C78.2413 21.7133 78.1026 21.1413 77.8253 20.656C77.5826 20.136 77.2186 19.7027 76.7333 19.356C76.248 19.0093 75.6413 18.7493 74.9133 18.576C74.1853 18.4027 73.3533 18.316 72.4173 18.316C72.3133 18.316 72.2093 18.316 72.1053 18.316C72.0013 18.316 71.8973 18.316 71.7933 18.316C71.6893 18.3507 71.5853 18.368 71.4813 18.368C71.412 18.368 71.3426 18.368 71.2733 18.368C71.1346 18.368 70.996 18.3853 70.8573 18.42C70.7186 18.42 70.5973 18.4373 70.4933 18.472C70.4586 18.472 70.4066 18.4893 70.3373 18.524C70.3026 18.524 70.268 18.5413 70.2333 18.576C70.164 18.576 70.112 18.5933 70.0773 18.628C70.0426 18.628 69.9906 18.6453 69.9213 18.68C69.8866 18.7147 69.8346 18.7493 69.7653 18.784C69.7306 18.784 69.6786 18.784 69.6093 18.784C69.5746 18.8187 69.5226 18.8533 69.4533 18.888C69.4186 18.888 69.3666 18.9053 69.2973 18.94C69.7133 19.0787 70.06 19.252 70.3373 19.46C70.6493 19.668 70.9093 19.8933 71.1173 20.136C71.3253 20.3787 71.4813 20.6387 71.5853 20.916C71.6893 21.1933 71.7413 21.5053 71.7413 21.852C71.7413 22.4067 71.6546 22.9093 71.4813 23.36C71.308 23.8107 71.0306 24.2093 70.6493 24.556C70.3026 24.9027 69.8866 25.1627 69.4013 25.336C68.916 25.4747 68.3786 25.544 67.7893 25.544C67.2 25.544 66.6626 25.44 66.1773 25.232C65.692 25.024 65.2586 24.6947 64.8773 24.244C64.496 23.828 64.2013 23.3427 63.9933 22.788C63.82 22.2333 63.7333 21.6267 63.7333 20.968C63.7333 19.9627 63.9586 19.0613 64.4093 18.264C64.86 17.4667 65.536 16.7907 66.4373 16.236C67.3386 15.6467 68.4306 15.2133 69.7133 14.936C70.996 14.6587 72.452 14.52 74.0813 14.52C76.196 14.52 77.9986 14.6933 79.4893 15.04C81.0146 15.352 82.228 15.8373 83.1293 16.496C84.0306 17.1547 84.7066 18.0213 85.1573 19.096C85.608 20.1707 85.8333 21.4707 85.8333 22.996V34.436C85.8333 34.8173 85.8506 35.1293 85.8853 35.372C85.92 35.58 85.972 35.7533 86.0413 35.892C86.1106 36.0307 86.2146 36.1347 86.3533 36.204C86.492 36.2387 86.6653 36.256 86.8733 36.256C87.0813 36.256 87.2546 36.2213 87.3933 36.152C87.5666 36.048 87.7053 35.9093 87.8093 35.736C87.8786 35.5627 87.9306 35.3373 87.9653 35.06C88.0346 34.748 88.0693 34.3667 88.0693 33.916V30.848ZM78.1373 28.404C78.0333 28.4733 77.9293 28.5427 77.8253 28.612C77.7213 28.6467 77.6173 28.6813 77.5133 28.716C77.4786 28.7507 77.4266 28.7853 77.3573 28.82C77.3226 28.82 77.288 28.82 77.2533 28.82C77.184 28.8547 77.132 28.8893 77.0973 28.924C77.0626 28.924 77.0106 28.924 76.9413 28.924C76.8373 28.9587 76.7333 28.9933 76.6293 29.028C76.5253 29.0627 76.4213 29.0973 76.3173 29.132C76.2826 29.1667 76.2306 29.2013 76.1613 29.236C76.1266 29.236 76.092 29.236 76.0573 29.236C75.988 29.2707 75.936 29.3053 75.9013 29.34C75.8666 29.34 75.8146 29.34 75.7453 29.34C75.6066 29.3747 75.468 29.4267 75.3293 29.496C75.2253 29.5307 75.1213 29.5827 75.0173 29.652C74.8786 29.6867 74.74 29.7213 74.6013 29.756C74.4973 29.7907 74.376 29.8253 74.2373 29.86C74.2373 29.86 74.22 29.86 74.1853 29.86C74.1506 29.8947 74.1333 29.912 74.1333 29.912C74.0986 29.912 74.064 29.912 74.0293 29.912C73.5786 30.0507 73.1453 30.2067 72.7293 30.38C72.348 30.5187 71.9666 30.692 71.5853 30.9C71.2386 31.108 70.9786 31.4027 70.8053 31.784C70.632 32.1653 70.5453 32.6507 70.5453 33.24C70.5453 33.6907 70.6146 34.0893 70.7533 34.436C70.892 34.7827 71.0826 35.0947 71.3253 35.372C71.6026 35.6147 71.9146 35.8053 72.2613 35.944C72.6426 36.0827 73.0586 36.152 73.5093 36.152C74.0986 36.152 74.6706 36.0653 75.2253 35.892C75.78 35.684 76.2826 35.3893 76.7333 35.008C77.2186 34.6267 77.5653 34.2107 77.7733 33.76C78.016 33.3093 78.1373 32.8413 78.1373 32.356V28.404ZM105.43 5.316V33.448C105.43 33.9333 105.465 34.332 105.534 34.644C105.604 34.956 105.708 35.1987 105.846 35.372C105.985 35.5453 106.158 35.684 106.366 35.788C106.609 35.8573 106.904 35.892 107.25 35.892L109.59 35.788V40H93.6264V35.788H95.8104C95.8797 35.8227 95.9317 35.84 95.9664 35.84C96.0357 35.84 96.0877 35.84 96.1224 35.84C96.3997 35.84 96.6251 35.8053 96.7984 35.736C97.0064 35.632 97.1797 35.5107 97.3184 35.372C97.4571 35.1987 97.5611 34.9733 97.6304 34.696C97.6997 34.384 97.7344 34.0027 97.7344 33.552V11.868C97.7344 11.4867 97.6997 11.1573 97.6304 10.88C97.5611 10.568 97.4571 10.3427 97.3184 10.204C97.1797 10.0307 96.9891 9.90933 96.7464 9.84C96.5037 9.736 96.1917 9.684 95.8104 9.684L93.6264 9.58V5.316H105.43ZM112.521 27.468C112.59 25.4573 112.954 23.672 113.613 22.112C114.271 20.5173 115.19 19.148 116.369 18.004C117.582 16.86 119.003 16.0107 120.633 15.456C122.297 14.8667 124.186 14.572 126.301 14.572C128.45 14.572 130.357 14.8667 132.021 15.456C133.719 16.0453 135.175 16.9293 136.389 18.108C137.602 19.2867 138.503 20.6907 139.093 22.32C139.717 23.9493 140.029 25.7867 140.029 27.832C140.029 29.8427 139.717 31.6453 139.093 33.24C138.469 34.8 137.533 36.1867 136.285 37.4C135.037 38.5787 133.581 39.4453 131.917 40C130.287 40.5893 128.433 40.884 126.353 40.884C124.203 40.884 122.279 40.6067 120.581 40.052C118.882 39.532 117.426 38.7 116.213 37.556C114.965 36.412 114.029 35.008 113.405 33.344C112.815 31.68 112.521 29.756 112.521 27.572V27.468ZM120.737 27.416C120.737 28.976 120.858 30.3453 121.101 31.524C121.343 32.668 121.69 33.6387 122.141 34.436C122.626 35.2333 123.198 35.84 123.857 36.256C124.55 36.6373 125.347 36.828 126.249 36.828C127.15 36.828 127.947 36.6373 128.641 36.256C129.334 35.84 129.906 35.2333 130.357 34.436C130.842 33.6387 131.206 32.668 131.449 31.524C131.691 30.3453 131.813 28.9933 131.813 27.468C131.813 26.1507 131.674 24.9547 131.397 23.88C131.154 22.8053 130.79 21.8867 130.305 21.124C129.819 20.3267 129.23 19.7373 128.537 19.356C127.878 18.94 127.133 18.732 126.301 18.732C125.434 18.732 124.654 18.9227 123.961 19.304C123.267 19.6853 122.678 20.2747 122.193 21.072C121.707 21.8347 121.343 22.7533 121.101 23.828C120.858 24.9027 120.737 26.1333 120.737 27.52V27.416ZM163.726 16.652C163.796 16.6173 163.848 16.5827 163.882 16.548C163.952 16.4787 164.004 16.4267 164.038 16.392C164.108 16.3227 164.16 16.2533 164.194 16.184C164.264 16.1147 164.316 16.0453 164.35 15.976C164.732 15.5947 165.113 15.2653 165.494 14.988C165.876 14.676 166.257 14.4333 166.638 14.26C167.02 14.0867 167.436 13.9653 167.886 13.896C168.372 13.792 168.874 13.74 169.394 13.74C170.053 13.74 170.642 13.844 171.162 14.052C171.717 14.2253 172.22 14.5027 172.67 14.884C173.086 15.2653 173.398 15.716 173.606 16.236C173.849 16.7213 173.97 17.2587 173.97 17.848C173.97 18.368 173.884 18.8533 173.71 19.304C173.572 19.72 173.346 20.1013 173.034 20.448C172.722 20.7947 172.358 21.0547 171.942 21.228C171.561 21.4013 171.128 21.488 170.642 21.488C170.226 21.488 169.845 21.436 169.498 21.332C169.186 21.1933 168.892 21.0027 168.614 20.76C168.337 20.4827 168.129 20.2053 167.99 19.928C167.852 19.616 167.782 19.2867 167.782 18.94C167.782 18.8707 167.782 18.8187 167.782 18.784C167.782 18.7493 167.782 18.6973 167.782 18.628C167.782 18.5933 167.782 18.5587 167.782 18.524C167.782 18.4547 167.782 18.4027 167.782 18.368C167.782 18.2987 167.8 18.2293 167.834 18.16C167.869 18.056 167.904 17.952 167.938 17.848C167.973 17.7787 168.008 17.7093 168.042 17.64C168.112 17.536 168.164 17.432 168.198 17.328C168.268 17.2587 168.337 17.172 168.406 17.068C168.476 16.964 168.562 16.86 168.666 16.756C168.597 16.7213 168.528 16.704 168.458 16.704C168.424 16.6693 168.372 16.652 168.302 16.652C168.268 16.652 168.233 16.652 168.198 16.652C168.198 16.652 168.198 16.6347 168.198 16.6C168.164 16.6 168.129 16.6 168.094 16.6C168.094 16.6 168.077 16.6 168.042 16.6C168.008 16.6 167.99 16.6 167.99 16.6C167.956 16.6 167.938 16.6 167.938 16.6C167.696 16.6 167.453 16.6347 167.21 16.704C167.002 16.7733 166.794 16.8773 166.586 17.016C166.344 17.1547 166.118 17.328 165.91 17.536C165.702 17.7093 165.512 17.9347 165.338 18.212C165.72 18.628 166.049 19.0613 166.326 19.512C166.604 19.928 166.812 20.3787 166.95 20.864C167.124 21.3147 167.245 21.8173 167.314 22.372C167.384 22.9267 167.418 23.5507 167.418 24.244C167.418 25.7347 167.141 27.0693 166.586 28.248C166.066 29.392 165.286 30.3973 164.246 31.264C163.172 32.1307 161.906 32.7893 160.45 33.24C159.029 33.656 157.4 33.864 155.562 33.864C155.008 33.864 154.47 33.8467 153.95 33.812C153.43 33.7773 152.928 33.7253 152.442 33.656C151.957 33.5867 151.489 33.4827 151.038 33.344C150.588 33.2053 150.172 33.0667 149.79 32.928C149.548 33.0667 149.34 33.2053 149.166 33.344C148.993 33.448 148.854 33.5693 148.75 33.708C148.646 33.8467 148.56 34.0027 148.49 34.176C148.456 34.3493 148.438 34.54 148.438 34.748C148.438 35.0947 148.49 35.3893 148.594 35.632C148.733 35.84 148.924 36.0307 149.166 36.204C149.409 36.3427 149.704 36.4467 150.05 36.516C150.432 36.5853 150.882 36.62 151.402 36.62C151.437 36.62 151.472 36.62 151.506 36.62C151.541 36.62 151.576 36.62 151.61 36.62C151.61 36.62 151.628 36.62 151.662 36.62C151.662 36.62 151.68 36.6027 151.714 36.568C151.749 36.568 151.766 36.568 151.766 36.568L162.322 36.204C162.357 36.2733 162.392 36.308 162.426 36.308C162.461 36.308 162.496 36.308 162.53 36.308C162.565 36.308 162.582 36.308 162.582 36.308C162.617 36.308 162.652 36.308 162.686 36.308C162.721 36.2733 162.756 36.256 162.79 36.256C162.825 36.256 162.86 36.256 162.894 36.256C162.929 36.256 162.964 36.256 162.998 36.256C163.033 36.256 163.068 36.256 163.102 36.256C163.137 36.256 163.172 36.256 163.206 36.256C164.316 36.256 165.356 36.3427 166.326 36.516C167.332 36.6893 168.285 36.9667 169.186 37.348C170.088 37.6947 170.764 38.3013 171.214 39.168C171.665 40 171.89 41.0573 171.89 42.34C171.89 43.7267 171.63 44.888 171.11 45.824C170.59 46.7947 169.81 47.5573 168.77 48.112C167.73 48.6667 166.638 49.1173 165.494 49.464C164.385 49.8107 163.224 50.0533 162.01 50.192C161.456 50.2613 160.901 50.3133 160.346 50.348C159.792 50.3827 159.254 50.4 158.734 50.4C158.457 50.4 158.18 50.4 157.902 50.4C157.66 50.4 157.417 50.4173 157.174 50.452C156.932 50.452 156.689 50.452 156.446 50.452C156.204 50.452 155.978 50.452 155.77 50.452C153.448 50.452 151.454 50.3653 149.79 50.192C148.161 50.0187 146.844 49.7413 145.838 49.36C144.868 49.0133 144.14 48.528 143.654 47.904C143.169 47.3147 142.926 46.5867 142.926 45.72C142.926 45.2693 142.996 44.8533 143.134 44.472C143.273 44.0907 143.464 43.7613 143.706 43.484C143.984 43.172 144.348 42.8773 144.798 42.6C145.249 42.3573 145.786 42.1147 146.41 41.872C145.856 41.6987 145.353 41.4733 144.902 41.196C144.486 40.9533 144.14 40.6587 143.862 40.312C143.585 40 143.377 39.6187 143.238 39.168C143.1 38.6827 143.03 38.1453 143.03 37.556C143.03 36.8627 143.117 36.256 143.29 35.736C143.464 35.216 143.724 34.7827 144.07 34.436C144.417 34.0547 144.798 33.708 145.214 33.396C145.63 33.0493 146.098 32.72 146.618 32.408C146.653 32.3733 146.688 32.356 146.722 32.356C146.757 32.3213 146.792 32.2867 146.826 32.252C146.861 32.252 146.896 32.252 146.93 32.252C146.965 32.2173 147 32.1827 147.034 32.148C147.104 32.0787 147.173 32.0267 147.242 31.992C147.346 31.9227 147.45 31.8707 147.554 31.836C146.896 31.4547 146.324 31.0387 145.838 30.588C145.388 30.1027 145.006 29.548 144.694 28.924C144.382 28.3 144.157 27.6067 144.018 26.844C143.88 26.0813 143.81 25.2493 143.81 24.348C143.81 22.8227 144.07 21.4533 144.59 20.24C145.145 19.0267 145.96 17.9867 147.034 17.12C148.109 16.2533 149.374 15.612 150.83 15.196C152.321 14.7453 154.02 14.52 155.926 14.52C156.446 14.52 156.949 14.5373 157.434 14.572C157.92 14.6067 158.37 14.6587 158.786 14.728C159.202 14.7973 159.618 14.9013 160.034 15.04C160.45 15.144 160.866 15.2827 161.282 15.456C161.456 15.5253 161.646 15.612 161.854 15.716C162.062 15.82 162.27 15.924 162.478 16.028C162.686 16.132 162.894 16.2533 163.102 16.392C163.31 16.496 163.518 16.6173 163.726 16.756V16.652ZM150.154 42.392C149.912 42.5307 149.686 42.6693 149.478 42.808C149.305 42.9813 149.166 43.1547 149.062 43.328C148.924 43.5013 148.82 43.6747 148.75 43.848C148.716 44.056 148.698 44.2813 148.698 44.524C148.698 45.0093 148.837 45.408 149.114 45.72C149.426 46.0667 149.86 46.344 150.414 46.552C151.004 46.76 151.749 46.916 152.65 47.02C153.552 47.1587 154.626 47.228 155.874 47.228C157.504 47.228 158.89 47.176 160.034 47.072C161.213 46.968 162.132 46.8293 162.79 46.656C163.484 46.448 163.986 46.1707 164.298 45.824C164.645 45.4773 164.818 45.0613 164.818 44.576C164.818 44.1253 164.714 43.7613 164.506 43.484C164.298 43.2067 163.986 42.9813 163.57 42.808C163.154 42.6693 162.513 42.5653 161.646 42.496C160.814 42.4267 159.774 42.392 158.526 42.392H150.154ZM151.298 23.984C151.298 25.0587 151.385 25.9947 151.558 26.792C151.766 27.5893 152.061 28.2827 152.442 28.872C152.824 29.4613 153.274 29.912 153.794 30.224C154.314 30.5013 154.904 30.64 155.562 30.64C156.186 30.64 156.741 30.5013 157.226 30.224C157.746 29.912 158.197 29.4613 158.578 28.872C158.96 28.2827 159.254 27.6067 159.462 26.844C159.67 26.0467 159.774 25.1627 159.774 24.192C159.774 23.2213 159.67 22.3547 159.462 21.592C159.254 20.7947 158.96 20.1013 158.578 19.512C158.197 18.9227 157.746 18.4893 157.226 18.212C156.706 17.9 156.134 17.744 155.51 17.744C154.852 17.744 154.262 17.8827 153.742 18.16C153.257 18.4373 152.824 18.8707 152.442 19.46C152.061 20.0147 151.766 20.6907 151.558 21.488C151.385 22.2507 151.298 23.1173 151.298 24.088V23.984Z" fill="black"/>
<path d="M176.053 9.632V5.316H199.037C201.498 5.38533 203.7 5.784 205.641 6.512C207.582 7.24 209.246 8.332 210.633 9.788C212.054 11.244 213.112 12.9947 213.805 15.04C214.498 17.0853 214.845 19.408 214.845 22.008C214.845 24.7467 214.446 27.208 213.649 29.392C212.886 31.576 211.742 33.4827 210.217 35.112C208.657 36.776 206.837 38.0067 204.757 38.804C202.712 39.6013 200.406 40 197.841 40H176.053V35.736H178.757C178.826 35.7707 178.896 35.788 178.965 35.788C179.034 35.788 179.086 35.788 179.121 35.788C179.537 35.788 179.901 35.7533 180.213 35.684C180.525 35.58 180.768 35.4413 180.941 35.268C181.149 35.0947 181.305 34.852 181.409 34.54C181.513 34.228 181.565 33.8467 181.565 33.396V12.076C181.565 11.6947 181.513 11.348 181.409 11.036C181.305 10.724 181.149 10.4813 180.941 10.308C180.733 10.1347 180.438 9.996 180.057 9.892C179.71 9.788 179.277 9.736 178.757 9.736L176.053 9.632ZM190.145 35.528H194.565C194.634 35.5627 194.686 35.58 194.721 35.58C194.79 35.58 194.86 35.58 194.929 35.58C194.964 35.58 195.016 35.58 195.085 35.58C195.154 35.58 195.206 35.58 195.241 35.58C196.142 35.58 196.94 35.528 197.633 35.424C198.361 35.32 198.985 35.1813 199.505 35.008C200.094 34.8 200.632 34.5227 201.117 34.176C201.637 33.7947 202.105 33.344 202.521 32.824C203.041 32.2 203.474 31.5067 203.821 30.744C204.202 29.9813 204.514 29.1667 204.757 28.3C205 27.4333 205.173 26.4627 205.277 25.388C205.416 24.3133 205.485 23.1347 205.485 21.852C205.485 20.0147 205.294 18.3853 204.913 16.964C204.532 15.508 203.942 14.2427 203.145 13.168C202.382 12.0587 201.308 11.244 199.921 10.724C198.569 10.1693 196.922 9.892 194.981 9.892L190.145 9.788V35.528ZM230.301 15.196V33.448C230.301 33.9333 230.336 34.332 230.406 34.644C230.475 34.956 230.579 35.1987 230.718 35.372C230.856 35.5453 231.047 35.684 231.29 35.788C231.532 35.8573 231.827 35.892 232.174 35.892L234.358 35.788V40H218.498V35.788H220.734C220.803 35.8227 220.855 35.84 220.89 35.84C220.924 35.84 220.959 35.84 220.994 35.84C221.271 35.84 221.496 35.8053 221.67 35.736C221.878 35.632 222.051 35.5107 222.19 35.372C222.328 35.1987 222.432 34.9733 222.502 34.696C222.571 34.384 222.606 34.0027 222.606 33.552V21.748C222.606 21.3667 222.571 21.0373 222.502 20.76C222.432 20.448 222.328 20.2227 222.19 20.084C222.051 19.9107 221.86 19.7893 221.618 19.72C221.375 19.616 221.08 19.564 220.734 19.564L218.498 19.46V15.196H230.301ZM226.142 4.12C226.731 4.18933 227.286 4.328 227.806 4.536C228.326 4.744 228.794 5.056 229.21 5.472C229.626 5.888 229.938 6.356 230.146 6.876C230.388 7.396 230.51 7.95066 230.51 8.54C230.51 9.164 230.388 9.736 230.146 10.256C229.938 10.776 229.626 11.244 229.21 11.66C228.794 12.076 228.326 12.388 227.806 12.596C227.286 12.804 226.731 12.908 226.142 12.908C225.552 12.908 224.998 12.804 224.478 12.596C223.958 12.388 223.49 12.0587 223.074 11.608C222.623 11.192 222.294 10.724 222.086 10.204C221.878 9.684 221.774 9.12933 221.774 8.54C221.774 7.95066 221.878 7.396 222.086 6.876C222.294 6.356 222.623 5.888 223.074 5.472C223.49 5.056 223.958 4.744 224.478 4.536C224.998 4.328 225.552 4.224 226.142 4.224V4.12ZM249.042 15.196L248.782 18.888C249.094 18.5413 249.389 18.212 249.666 17.9C249.944 17.5533 250.204 17.2587 250.446 17.016C250.689 16.7387 250.932 16.496 251.174 16.288C251.417 16.0453 251.66 15.8547 251.902 15.716C252.18 15.5427 252.44 15.3867 252.682 15.248C252.96 15.1093 253.237 15.0053 253.514 14.936C253.792 14.8667 254.086 14.8147 254.398 14.78C254.71 14.7453 255.04 14.728 255.386 14.728C256.184 14.728 256.894 14.8667 257.518 15.144C258.142 15.4213 258.68 15.82 259.13 16.34C259.616 16.86 259.962 17.4667 260.17 18.16C260.413 18.8533 260.534 19.6507 260.534 20.552C260.534 21.2107 260.43 21.8173 260.222 22.372C260.014 22.9267 259.72 23.412 259.338 23.828C258.957 24.244 258.506 24.556 257.986 24.764C257.466 24.972 256.894 25.076 256.27 25.076C255.716 25.076 255.213 24.9893 254.762 24.816C254.346 24.6427 253.965 24.3827 253.618 24.036C253.272 23.6547 253.012 23.256 252.838 22.84C252.665 22.3893 252.578 21.904 252.578 21.384C252.578 21.3147 252.578 21.2453 252.578 21.176C252.578 21.1067 252.578 21.0373 252.578 20.968C252.578 20.8987 252.578 20.8293 252.578 20.76C252.613 20.656 252.648 20.5693 252.682 20.5C252.717 20.3267 252.752 20.1707 252.786 20.032C252.856 19.8587 252.942 19.7027 253.046 19.564C253.15 19.3907 253.272 19.2173 253.41 19.044C253.549 18.836 253.705 18.6107 253.878 18.368C253.22 18.368 252.63 18.5067 252.11 18.784C251.59 19.0613 251.157 19.4773 250.81 20.032C250.464 20.5867 250.169 21.176 249.926 21.8C249.718 22.3893 249.545 23.0133 249.406 23.672C249.337 24.0187 249.268 24.3653 249.198 24.712C249.164 25.024 249.129 25.336 249.094 25.648C249.06 25.9947 249.042 26.3067 249.042 26.584C249.042 26.8613 249.042 27.1213 249.042 27.364V33.448C249.042 33.9333 249.077 34.332 249.146 34.644C249.216 34.956 249.32 35.1987 249.458 35.372C249.597 35.5453 249.788 35.684 250.03 35.788C250.273 35.8573 250.568 35.892 250.914 35.892L253.878 35.788V40H237.134V35.788H239.474C239.544 35.8227 239.596 35.84 239.63 35.84C239.665 35.84 239.7 35.84 239.734 35.84C240.012 35.84 240.237 35.8053 240.41 35.736C240.618 35.632 240.792 35.5107 240.93 35.372C241.069 35.1987 241.173 34.9733 241.242 34.696C241.312 34.384 241.346 34.0027 241.346 33.552V21.748C241.346 21.3667 241.312 21.0373 241.242 20.76C241.173 20.448 241.069 20.2227 240.93 20.084C240.792 19.9107 240.601 19.7893 240.358 19.72C240.116 19.616 239.821 19.564 239.474 19.564L237.134 19.46V15.196H249.042ZM274.786 15.196V33.448C274.786 33.9333 274.821 34.332 274.89 34.644C274.959 34.956 275.063 35.1987 275.202 35.372C275.341 35.5453 275.531 35.684 275.774 35.788C276.017 35.8573 276.311 35.892 276.658 35.892L278.842 35.788V40H262.982V35.788H265.218C265.287 35.8227 265.339 35.84 265.374 35.84C265.409 35.84 265.443 35.84 265.478 35.84C265.755 35.84 265.981 35.8053 266.154 35.736C266.362 35.632 266.535 35.5107 266.674 35.372C266.813 35.1987 266.917 34.9733 266.986 34.696C267.055 34.384 267.09 34.0027 267.09 33.552V21.748C267.09 21.3667 267.055 21.0373 266.986 20.76C266.917 20.448 266.813 20.2227 266.674 20.084C266.535 19.9107 266.345 19.7893 266.102 19.72C265.859 19.616 265.565 19.564 265.218 19.564L262.982 19.46V15.196H274.786ZM270.626 4.12C271.215 4.18933 271.77 4.328 272.29 4.536C272.81 4.744 273.278 5.056 273.694 5.472C274.11 5.888 274.422 6.356 274.63 6.876C274.873 7.396 274.994 7.95066 274.994 8.54C274.994 9.164 274.873 9.736 274.63 10.256C274.422 10.776 274.11 11.244 273.694 11.66C273.278 12.076 272.81 12.388 272.29 12.596C271.77 12.804 271.215 12.908 270.626 12.908C270.037 12.908 269.482 12.804 268.962 12.596C268.442 12.388 267.974 12.0587 267.558 11.608C267.107 11.192 266.778 10.724 266.57 10.204C266.362 9.684 266.258 9.12933 266.258 8.54C266.258 7.95066 266.362 7.396 266.57 6.876C266.778 6.356 267.107 5.888 267.558 5.472C267.974 5.056 268.442 4.744 268.962 4.536C269.482 4.328 270.037 4.224 270.626 4.224V4.12Z" fill="#48914F"/>
<path d="M194.984 33.024V31.104C195.432 31.0187 195.837 30.88 196.2 30.688C196.584 30.496 196.915 30.2507 197.192 29.952C197.469 29.6747 197.683 29.3653 197.832 29.024C197.981 28.704 198.067 28.3627 198.088 28C198.003 28 197.917 28 197.832 28C197.768 28.0213 197.704 28.0427 197.64 28.064C197.576 28.0853 197.512 28.096 197.448 28.096C197.405 28.1173 197.363 28.1387 197.32 28.16C197.277 28.16 197.235 28.16 197.192 28.16C197.149 28.16 197.107 28.16 197.064 28.16C197.043 28.16 197.021 28.16 197 28.16C196.979 28.16 196.957 28.1707 196.936 28.192C196.915 28.192 196.893 28.192 196.872 28.192C196.851 28.192 196.829 28.192 196.808 28.192C196.445 28.192 196.115 28.1387 195.816 28.032C195.539 27.9467 195.293 27.7973 195.08 27.584C194.867 27.3707 194.707 27.1253 194.6 26.848C194.493 26.5493 194.44 26.208 194.44 25.824C194.44 25.4613 194.504 25.1307 194.632 24.832C194.781 24.512 194.995 24.2347 195.272 24C195.549 23.7653 195.848 23.584 196.168 23.456C196.509 23.328 196.883 23.264 197.288 23.264C197.736 23.264 198.152 23.36 198.536 23.552C198.92 23.7227 199.261 23.9893 199.56 24.352C199.859 24.7147 200.083 25.12 200.232 25.568C200.403 26.016 200.488 26.5067 200.488 27.04C200.488 27.7867 200.349 28.5013 200.072 29.184C199.816 29.8667 199.421 30.496 198.888 31.072C198.355 31.648 197.757 32.096 197.096 32.416C196.456 32.7573 195.752 32.96 194.984 33.024ZM197.16 12.544C197.523 12.5867 197.864 12.6827 198.184 12.832C198.504 12.96 198.803 13.152 199.08 13.408C199.336 13.6853 199.528 13.984 199.656 14.304C199.805 14.624 199.88 14.9653 199.88 15.328C199.88 15.712 199.805 16.064 199.656 16.384C199.528 16.704 199.336 16.992 199.08 17.248C198.803 17.5253 198.504 17.728 198.184 17.856C197.864 17.984 197.523 18.048 197.16 18.048C196.776 18.048 196.424 17.984 196.104 17.856C195.784 17.728 195.496 17.5253 195.24 17.248C194.963 16.992 194.76 16.704 194.632 16.384C194.504 16.064 194.44 15.712 194.44 15.328C194.44 14.9653 194.504 14.624 194.632 14.304C194.76 13.984 194.963 13.6853 195.24 13.408C195.496 13.152 195.784 12.96 196.104 12.832C196.424 12.6827 196.776 12.608 197.16 12.608V12.544Z" fill="black"/>
</svg>
